<svg width="24" height="24" viewBox="0 0 24 24" fill="none" xmlns="http://www.w3.org/2000/svg">
<path fill-rule="evenodd" clip-rule="evenodd" d="M9.62305 19.9512L10.0933 15.249L19.5933 5.74902H19.0933L6.17399 13.6993L3.21209 12.703L3.20209 12.7C3.1906 12.695 3.1744 12.6883 3.15631 12.6809C3.11613 12.6643 3.06667 12.6438 3.03909 12.63C2.94909 12.587 2.82709 12.522 2.69909 12.431C2.46409 12.265 2.08009 11.92 2.01009 11.36C1.92109 10.656 2.44409 10.23 2.67109 10.075C2.79141 9.99353 2.91855 9.9226 3.05109 9.86301C3.10583 9.83783 3.16154 9.81481 3.21809 9.79401L3.22009 9.79301L19.9341 3.23701L19.9451 3.23201C20.0305 3.19722 20.1172 3.16586 20.2051 3.13801C20.3621 3.08801 20.5961 3.02601 20.8481 3.00601C21.0831 2.98801 21.4541 2.99801 21.7881 3.21501C22.1771 3.46801 22.3431 3.88701 22.3431 4.32701C22.3432 4.37602 22.3385 4.42492 22.3291 4.47301L19.3491 19.498C19.3399 19.5435 19.3265 19.588 19.3091 19.631L19.3081 19.632V19.634L19.3061 19.638L19.3031 19.646L19.2941 19.668C19.1655 19.9514 18.9724 20.2007 18.7301 20.396C18.5191 20.565 18.2361 20.714 17.8801 20.764C17.5221 20.812 17.1421 20.752 16.7501 20.582C16.6941 20.557 16.6421 20.526 16.5941 20.489L13.3291 17.987L10.5031 19.749L10.4981 19.751C10.4037 19.8139 10.3015 19.8644 10.1941 19.901C10.0549 19.9474 9.85269 19.9874 9.62305 19.9512Z" fill="#1C222E"/>
</svg>
